<?xml version="1.0" encoding="utf-8"?>
<!-- Svg Vector Icons : http://www.onlinewebfonts.com/icon -->
<!DOCTYPE svg PUBLIC "-//W3C//DTD SVG 1.1//EN" "http://www.w3.org/Graphics/SVG/1.1/DTD/svg11.dtd">
<svg version="1.1" xmlns="http://www.w3.org/2000/svg" xmlns:xlink="http://www.w3.org/1999/xlink" x="0px" y="0px" viewBox="0 0 1000 1000" enable-background="new 0 0 1000 1000" xml:space="preserve">
<metadata> Svg Vector Icons : http://www.onlinewebfonts.com/icon </metadata>
<g><path fill="#FFF" d="M622.7,10v61.8c0,0-472.3,0-490,0c-46.2,0-61.7,35-61.7,62c0,29.7-0.7,666.6-0.7,732.2c0,41.8,45.1,60.4,63,60.4c34.9,0,687.7,0,735.2,0c25.9,0,59.7-21.2,59.7-84.9c0-41.1,0-462.3,0-462.3H990c0,0,0,457.6,0,488.7c0,32.8-4.9,121.9-123.4,121.9c-99.9,0-703.7,0-734.5,0C68.4,990,10,950.4,10,867.1c0-62.7,0-696,0-735.5C10,59.6,55.7,10,132.1,10C236.2,10,622.7,10,622.7,10z"/><path fill="#FFF" d="M957.2,165.8C934.3,143,866.5,74.6,851.4,58.4c-27.2-29.1-63.3-31-92.1-3.9C730.5,81.7,268,528.3,268,528.3L129.6,873.2l318.6-141.8c0,0,471.9-454.4,504-486.5C979.4,217.8,974,182.6,957.2,165.8z M208.1,791.7l82.1-198.6l102.9,111.4L208.1,791.7z M438.8,662.4L327.7,544l345.7-334l115.4,120.1L438.8,662.4z M828.3,288.3L716.1,171.9l85.7-82.3l114,112.5L828.3,288.3z"/></g>
</svg>
