<?xml version="1.0" encoding="utf-8"?>
<!-- Svg Vector Icons : http://www.onlinewebfonts.com/icon -->
<!DOCTYPE svg PUBLIC "-//W3C//DTD SVG 1.1//EN" "http://www.w3.org/Graphics/SVG/1.1/DTD/svg11.dtd">
<svg version="1.1" xmlns="http://www.w3.org/2000/svg" xmlns:xlink="http://www.w3.org/1999/xlink" x="0px" y="0px" viewBox="0 0 1000 1000" enable-background="new 0 0 1000 1000" xml:space="preserve">
<metadata> Svg Vector Icons : http://www.onlinewebfonts.com/icon </metadata>
<g><g transform="translate(0.000000,511.000000) scale(0.100000,-0.100000)"><path fill="#FFF" d="M100,110v-2450h4900h4900V110v2450H5000H100V110z M1516.4,1727.4c0-5.7-134-187.6-296.7-405.8L923,927.3v403.9V1737h296.7C1382.4,1737,1516.4,1733.1,1516.4,1727.4z M3292.7,1721.6c-1.9-9.6-535.9-721.6-1182.9-1581L932.6-1427l-5.7,493.8L923-439.3l815.4,1087.2L2553.8,1737h373.2C3131.9,1737,3296.5,1729.3,3292.7,1721.6z M5210.5,1727.4c0-5.7-547.4-738.8-1215.4-1627L2777.8-1517h-440.2c-365.6,0-438.3,3.8-424.9,26.8c7.7,13.4,557,746.5,1219.3,1626.9L4335.8,1737h438.3C5013.4,1737,5210.5,1733.1,5210.5,1727.4z M9077,110v-1627H8014.6H6952.3V110v1627h1062.3H9077V110z M6144.6,1091.9c0-290.9-7.6-490-19.1-511c-11.5-21.1-367.5-501.5-792.4-1068L4559.8-1517h-375.2c-367.5,0-375.2,0-350.3,36.4c143.6,201,2289.2,3045.3,2296.9,3045.3C6138.9,1564.7,6144.6,1352.2,6144.6,1091.9z M6146.5-1185.8V-1517H5869c-218.2,0-275.6,5.7-264.2,24.9c9.6,11.5,126.3,172.3,264.2,354.1c168.4,225.8,252.6,323.5,262.2,306.2C6140.8-845.1,6146.5-1004,6146.5-1185.8z"/></g></g>
</svg>
