<?xml version="1.0" encoding="utf-8"?>
<!-- Svg Vector Icons : http://www.onlinewebfonts.com/icon -->
<!DOCTYPE svg PUBLIC "-//W3C//DTD SVG 1.1//EN" "http://www.w3.org/Graphics/SVG/1.1/DTD/svg11.dtd">
<svg version="1.1" xmlns="http://www.w3.org/2000/svg" xmlns:xlink="http://www.w3.org/1999/xlink" x="0px" y="0px" viewBox="0 0 1000 1000" enable-background="new 0 0 1000 1000" xml:space="preserve">
<metadata> Svg Vector Icons : http://www.onlinewebfonts.com/icon </metadata>
<g><path fill="#FFF" d="M311.3,456c53-58.4,101.3-99.9,145.1-124.5c43.7-24.7,80.9-37,111.7-37c22.1,1.1,54.4-2.3,52.5,41.4c0,15.4-17.2,80.7-51.6,195.8c-56.1,188.3-84.1,301.9-84.1,340.6c0,7.4,1.9,13.7,5.6,18.7c3.7,5.1,7.7,7.6,11.9,7.6c17,0,161.5-68.4,161.5-68.4c-72.7,68.4-125.7,112.2-159.2,131.3c-33.4,19.1-60.8,28.6-82,28.6c-18.6,0-33.3-5.8-44.2-17.5c-10.9-11.7-16.3-27.9-16.3-48.5c0-66.3,39.8-228.4,119.4-486.2c3.7-12.2,18.1-53.2-8.8-48.5C462.3,389.2,311.3,456,311.3,456z M615.6,10c21.3,0,38.8,7,52.5,21.1c13.7,14.1,20.6,32.1,20.6,54c0,30.2-10.5,56.8-31.4,79.8c-20.9,23-44.5,34.5-70.5,34.5c-20.6,0-37.8-7.2-51.5-21.6c-13.7-14.4-20.6-33.3-20.6-56.6c0-30.9,9.9-57.1,29.9-78.8C564.4,20.8,588.1,10,615.6,10z"/></g>
</svg>
