<?xml version="1.0" encoding="utf-8"?>
<!-- Svg Vector Icons : http://www.onlinewebfonts.com/icon -->
<!DOCTYPE svg PUBLIC "-//W3C//DTD SVG 1.1//EN" "http://www.w3.org/Graphics/SVG/1.1/DTD/svg11.dtd">
<svg version="1.1" xmlns="http://www.w3.org/2000/svg" xmlns:xlink="http://www.w3.org/1999/xlink" x="0px" y="0px" viewBox="0 0 1000 1000" enable-background="new 0 0 1000 1000" xml:space="preserve">
<metadata> Svg Vector Icons : http://www.onlinewebfonts.com/icon </metadata>
<g><path fill="#FFF" d="M846.5,153.5C754,61,630.9,10,500,10c-130.9,0-254,51-346.5,143.6C61,246.1,10,369.1,10,500c0,130.9,51,254,143.5,346.5C246,939,369.1,990,500,990s254-51,346.5-143.5C939,754,990,630.9,990,500C990.1,369.1,939.1,246,846.5,153.5z M817.6,817.6C732.8,902.5,620,949.2,500,949.2s-232.8-46.7-317.6-131.5C97.6,732.8,50.8,620,50.8,500c0-120,46.7-232.8,131.5-317.6C267.2,97.5,380.1,50.8,500,50.8c120,0,232.8,46.7,317.6,131.5C902.5,267.2,949.2,380,949.2,500C949.2,620,902.4,732.8,817.6,817.6z"/><path fill="#FFF" d="M691.5,218c-6.9-8.9-19.7-10.6-28.6-3.7L312.2,484.5c-5,3.9-7.9,9.9-7.9,16.2c0,6.3,3,12.3,8,16.2l350.6,268.9c3.7,2.8,8.1,4.2,12.4,4.2c6.1,0,12.2-2.8,16.2-8c6.9-9,5.2-21.8-3.8-28.6L358.2,500.6l329.6-254C696.7,239.7,698.4,226.9,691.5,218z"/></g>
</svg>
