<?xml version="1.0" encoding="utf-8"?>
<!-- Svg Vector Icons : http://www.onlinewebfonts.com/icon -->
<!DOCTYPE svg PUBLIC "-//W3C//DTD SVG 1.1//EN" "http://www.w3.org/Graphics/SVG/1.1/DTD/svg11.dtd">
<svg version="1.1" xmlns="http://www.w3.org/2000/svg" xmlns:xlink="http://www.w3.org/1999/xlink" x="0px" y="0px" viewBox="0 0 1000 1000" enable-background="new 0 0 1000 1000" xml:space="preserve">
<metadata> Svg Vector Icons : http://www.onlinewebfonts.com/icon </metadata>
<g><g><path fill="#FFF" d="M924.7,33.7H75.4C39.3,33.7,10,63.2,10,99.5v603.4c0,36.3,29.3,65.8,65.4,65.8h325.8c0,0,14.2,131.7-98.7,131.7v65.9h98.7h197.6h98.8v-65.9c-117.4,0-98.8-131.7-98.8-131.7h326c36,0,65.3-29.5,65.3-65.8V99.5C990,63.2,960.7,33.7,924.7,33.7z M447.8,688.1c0-31.2,25.3-56.5,56.5-56.5c31.2,0,56.5,25.3,56.5,56.5c0,31.2-25.3,56.5-56.5,56.5C473.2,744.6,447.8,719.3,447.8,688.1z M920,612.4H80V103.7h840V612.4z"/><circle fill="#FFF" cx="505" cy="687.9" r="35.1"/><g></g><g></g><g></g><g></g><g></g><g></g><g></g><g></g><g></g><g></g><g></g><g></g><g></g><g></g><g></g></g><g></g><g></g><g></g><g></g><g></g><g></g><g></g><g></g><g></g><g></g><g></g><g></g><g></g><g></g><g></g></g>
</svg>
