<?xml version="1.0" encoding="utf-8"?>
<!-- Svg Vector Icons : http://www.onlinewebfonts.com/icon -->
<!DOCTYPE svg PUBLIC "-//W3C//DTD SVG 1.1//EN" "http://www.w3.org/Graphics/SVG/1.1/DTD/svg11.dtd">
<svg version="1.1" xmlns="http://www.w3.org/2000/svg" xmlns:xlink="http://www.w3.org/1999/xlink" x="0px" y="0px" viewBox="0 0 1000 1000" enable-background="new 0 0 1000 1000" xml:space="preserve">
<metadata> Svg Vector Icons : http://www.onlinewebfonts.com/icon </metadata>
<g><g transform="translate(0.000000,511.000000) scale(0.100000,-0.100000)"><path fill="#FFF" d="M228.1,3410.4C95,3317.4,100,3440.5,100,110c0-3330.5-5-3207.4,128.1-3300.4c52.7-37.7,454.6-40.2,4769.7-40.2c5234.4,0,4787.3-15.1,4862.6,165.8c52.8,125.6,52.8,6224,0,6349.5c-75.4,180.8,371.7,165.8-4862.6,165.8C682.7,3450.5,280.9,3448,228.1,3410.4z M9368.2,110v-2838.2H4997.8H627.5V110v2838.2h4370.3h4370.3V110z"/><path fill="#FFF" d="M6381.7,2255c-532.5-143.2-931.8-685.7-931.8-1260.9c0-261.2,95.4-522.4,281.3-773.6l113-150.7L5706.1-3c-464.7-243.6-846.4-710.8-1009.7-1230.7c-65.3-211-95.4-630.4-52.7-710.8c72.8-135.6,22.6-133.1,2064.6-125.6l1886.3,7.5l60.3,70.3c128.1,150.7,57.8,660.6-150.7,1085c-188.4,381.8-469.7,675.7-851.4,889.2c-165.8,92.9-168.3,95.4-118.1,140.7c98,87.9,223.5,308.9,288.8,497.3c153.2,457.1,27.6,957-326.5,1311.1C7183,2242.4,6776.1,2363,6381.7,2255z M6949.4,1699.9c246.2-115.5,419.5-399.4,419.5-688.2c0-311.4-226.1-640.5-504.9-735.9c-145.7-50.2-216-50.2-376.7-2.5c-286.3,85.4-517.4,414.4-517.4,735.9c0,346.6,233.6,663.1,555.1,748.5C6670.6,1795.3,6778.6,1782.8,6949.4,1699.9z M7080-334.6c366.7-92.9,758.5-406.9,936.8-748.5c97.9-188.4,178.3-432,155.7-467.2c-15.1-27.6-2991.4-30.1-3006.5-2.5c-22.6,35.2,60.3,291.4,150.7,467.2c60.3,113,158.2,241.1,271.3,354.1C5982.4-334.6,6527.4-188.9,7080-334.6z"/><path fill="#FFF" d="M1544.2,2013.9c-198.4-108-180.8-394.3,30.1-474.7c87.9-32.6,2642.3-30.1,2740.2,5c200.9,70.3,221,364.2,30.1,462.1c-62.8,32.6-266.2,37.7-1411.6,37.7C2008.9,2041.5,1579.4,2034,1544.2,2013.9z"/><path fill="#FFF" d="M1478.9,288.3c-57.8-57.8-72.8-95.4-72.8-178.3c0-82.9,15.1-120.6,72.8-178.3l72.8-72.9h1386.5h1386.5l72.8,72.9c103,103,103,253.7,0,356.7l-72.8,72.8H2938.2H1551.8L1478.9,288.3z"/><path fill="#FFF" d="M1546.8-1334.2c-103-55.3-138.1-110.5-138.1-226c-2.5-105.5,47.7-188.4,140.7-236.1c37.7-17.6,351.6-27.6,999.6-27.6c1037.3,0,1052.4,2.5,1130.3,150.7c47.7,92.9,47.7,133.1-2.5,228.6c-72.8,143.1-115.5,148.2-1132.8,148.2C1767.8-1296.6,1607-1304.1,1546.8-1334.2z"/></g></g>
</svg>
